<?xml version="1.0" encoding="UTF-8" standalone="no"?>
<svg width="212px" height="212px" viewBox="0 0 212 212" version="1.1" xmlns="http://www.w3.org/2000/svg" xmlns:xlink="http://www.w3.org/1999/xlink" xmlns:sketch="http://www.bohemiancoding.com/sketch/ns">
    <!-- Generator: Sketch 3.5.2 (25235) - http://www.bohemiancoding.com/sketch -->
    <title>plus-icon</title>
    <desc>Created with Sketch.</desc>
    <defs></defs>
    <g id="Page-1" stroke="none" stroke-width="1" fill="none" fill-rule="evenodd" sketch:type="MSPage">
        <g id="plus-icon" sketch:type="MSLayerGroup" transform="translate(-21.000000, -21.000000)" fill="#000000">
            <g id="Page-1" sketch:type="MSShapeGroup">
                <g id="plus-icon" transform="translate(126.605396, 126.977948) rotate(45.000000) translate(-126.605396, -126.977948) translate(37.105396, 37.477948)">
                    <path d="M125.254741,89.7419009 L176.521527,38.475115 C179.649802,35.3468404 179.642394,30.2853618 176.516,27.1589677 L152.482335,3.12530332 C149.349978,-0.00705381772 144.289529,-0.00356549978 141.166188,3.11977595 L89.8994021,54.3865619 L38.6326161,3.11977595 C35.5043415,-0.00849866339 30.442863,-0.00109081055 27.3164688,3.12530332 L3.28280446,27.1589677 C0.150447324,30.2913248 0.153935642,35.3517736 3.27727709,38.475115 L54.544063,89.7419009 L3.27727709,141.008687 C0.149002478,144.136961 0.156410331,149.19844 3.28280446,152.324834 L27.3164688,176.358499 C30.448826,179.490856 35.5092747,179.487367 38.6326161,176.364026 L89.8994021,125.09724 L141.166188,176.364026 C144.294463,179.492301 149.355941,179.484893 152.482335,176.358499 L176.516,152.324834 C179.648357,149.192477 179.644868,144.132028 176.521527,141.008687 L125.254741,89.7419009 Z"></path>
                </g>
            </g>
        </g>
    </g>
</svg>